<svg width="160" height="33" viewBox="0 0 160 33" fill="none" xmlns="http://www.w3.org/2000/svg">
<g clip-path="url(#clip0_2_6)">
<path d="M11.9 25.53C9.4267 25.53 7.30333 25.005 5.53 23.955C3.75667 22.8817 2.39167 21.4 1.435 19.51C0.47833 17.5967 0 15.3917 0 12.895C0 10.3983 0.47833 8.19333 1.435 6.28C2.39167 4.36667 3.75667 2.87333 5.53 1.8C7.30333 0.726665 9.4267 0.189999 11.9 0.189999C14.84 0.189999 17.2433 0.924998 19.11 2.395C21 3.84167 22.1783 5.88333 22.645 8.52H17.71C17.4067 7.19 16.7533 6.15167 15.75 5.405C14.77 4.635 13.4633 4.25 11.83 4.25C9.5667 4.25 7.79333 5.02 6.51 6.56C5.22667 8.1 4.585 10.2117 4.585 12.895C4.585 15.5783 5.22667 17.69 6.51 19.23C7.79333 20.7467 9.5667 21.505 11.83 21.505C13.4633 21.505 14.77 21.155 15.75 20.455C16.7533 19.7317 17.4067 18.74 17.71 17.48H22.645C22.1783 20 21 21.9717 19.11 23.395C17.2433 24.8183 14.84 25.53 11.9 25.53ZM31.7907 25.53C30.2973 25.53 29.0723 25.2967 28.1157 24.83C27.159 24.34 26.4473 23.6983 25.9807 22.905C25.514 22.1117 25.2807 21.2367 25.2807 20.28C25.2807 18.67 25.9107 17.3633 27.1707 16.36C28.4307 15.3567 30.3207 14.855 32.8407 14.855H37.2507V14.435C37.2507 13.245 36.9123 12.37 36.2357 11.81C35.559 11.25 34.719 10.97 33.7157 10.97C32.8057 10.97 32.0123 11.1917 31.3357 11.635C30.659 12.055 30.239 12.685 30.0757 13.525H25.7007C25.8173 12.265 26.2373 11.1683 26.9607 10.235C27.7073 9.30167 28.664 8.59 29.8307 8.1C30.9973 7.58667 32.304 7.33 33.7507 7.33C36.224 7.33 38.1723 7.94833 39.5957 9.185C41.019 10.4217 41.7307 12.1717 41.7307 14.435V25.11H37.9157L37.4957 22.31C36.9823 23.2433 36.259 24.0133 35.3257 24.62C34.4157 25.2267 33.2373 25.53 31.7907 25.53ZM32.8057 22.03C34.089 22.03 35.0807 21.61 35.7807 20.77C36.504 19.93 36.959 18.8917 37.1457 17.655H33.3307C32.1407 17.655 31.289 17.8767 30.7757 18.32C30.2623 18.74 30.0057 19.265 30.0057 19.895C30.0057 20.5717 30.2623 21.0967 30.7757 21.47C31.289 21.8433 31.9657 22.03 32.8057 22.03ZM52.4809 25.53C50.9409 25.53 49.5875 25.285 48.4209 24.795C47.2542 24.2817 46.3209 23.5817 45.6209 22.695C44.9209 21.8083 44.5009 20.7817 44.3609 19.615H48.8759C49.0159 20.2917 49.3892 20.875 49.9959 21.365C50.6259 21.8317 51.4309 22.065 52.4109 22.065C53.3909 22.065 54.1025 21.8667 54.5459 21.47C55.0125 21.0733 55.2459 20.6183 55.2459 20.105C55.2459 19.3583 54.9192 18.8567 54.2659 18.6C53.6125 18.32 52.7025 18.0517 51.5359 17.795C50.7892 17.6317 50.0309 17.4333 49.2609 17.2C48.4909 16.9667 47.7792 16.675 47.1259 16.325C46.4959 15.9517 45.9825 15.485 45.5859 14.925C45.1892 14.3417 44.9909 13.63 44.9909 12.79C44.9909 11.25 45.5975 9.955 46.8109 8.905C48.0475 7.855 49.7742 7.33 51.9909 7.33C54.0442 7.33 55.6775 7.80833 56.8909 8.765C58.1275 9.72167 58.8625 11.04 59.0959 12.72H54.8609C54.6042 11.4367 53.6359 10.795 51.9559 10.795C51.1159 10.795 50.4625 10.9583 49.9959 11.285C49.5525 11.6117 49.3309 12.02 49.3309 12.51C49.3309 13.0233 49.6692 13.4317 50.3459 13.735C51.0225 14.0383 51.9209 14.3183 53.0409 14.575C54.2542 14.855 55.3625 15.17 56.3659 15.52C57.3925 15.8467 58.2092 16.3483 58.8159 17.025C59.4225 17.6783 59.7259 18.6233 59.7259 19.86C59.7492 20.9333 59.4692 21.9017 58.8859 22.765C58.3025 23.6283 57.4625 24.305 56.3659 24.795C55.2692 25.285 53.9742 25.53 52.4809 25.53ZM70.1827 25.11C68.3627 25.11 66.9043 24.6667 65.8077 23.78C64.711 22.8933 64.1627 21.3183 64.1627 19.055V11.495H61.1877V7.75H64.1627L64.6877 3.095H68.6427V7.75H73.3327V11.495H68.6427V19.09C68.6427 19.93 68.8177 20.5133 69.1677 20.84C69.541 21.1433 70.171 21.295 71.0577 21.295H73.2277V25.11H70.1827ZM82.4641 25.53C80.9708 25.53 79.7458 25.2967 78.7891 24.83C77.8324 24.34 77.1208 23.6983 76.6541 22.905C76.1874 22.1117 75.9541 21.2367 75.9541 20.28C75.9541 18.67 76.5841 17.3633 77.8441 16.36C79.1041 15.3567 80.9941 14.855 83.5141 14.855H87.9241V14.435C87.9241 13.245 87.5858 12.37 86.9091 11.81C86.2324 11.25 85.3924 10.97 84.3891 10.97C83.4791 10.97 82.6858 11.1917 82.0091 11.635C81.3324 12.055 80.9124 12.685 80.7491 13.525H76.3741C76.4908 12.265 76.9108 11.1683 77.6341 10.235C78.3808 9.30167 79.3374 8.59 80.5041 8.1C81.6708 7.58667 82.9774 7.33 84.4241 7.33C86.8974 7.33 88.8458 7.94833 90.2691 9.185C91.6924 10.4217 92.4041 12.1717 92.4041 14.435V25.11H88.5891L88.1691 22.31C87.6558 23.2433 86.9324 24.0133 85.9991 24.62C85.0891 25.2267 83.9108 25.53 82.4641 25.53ZM83.4791 22.03C84.7624 22.03 85.7541 21.61 86.4541 20.77C87.1774 19.93 87.6324 18.8917 87.8191 17.655H84.0041C82.8141 17.655 81.9624 17.8767 81.4491 18.32C80.9358 18.74 80.6791 19.265 80.6791 19.895C80.6791 20.5717 80.9358 21.0967 81.4491 21.47C81.9624 21.8433 82.6391 22.03 83.4791 22.03ZM99.2034 25.11L94.1284 7.75H98.5734L101.583 20.245L105.083 7.75H110.053L113.553 20.245L116.598 7.75H121.043L115.933 25.11H111.278L107.568 12.125L103.858 25.11H99.2034ZM128.266 25.53C126.773 25.53 125.548 25.2967 124.591 24.83C123.635 24.34 122.923 23.6983 122.456 22.905C121.99 22.1117 121.756 21.2367 121.756 20.28C121.756 18.67 122.386 17.3633 123.646 16.36C124.906 15.3567 126.796 14.855 129.316 14.855H133.726V14.435C133.726 13.245 133.388 12.37 132.711 11.81C132.035 11.25 131.195 10.97 130.191 10.97C129.281 10.97 128.488 11.1917 127.811 11.635C127.135 12.055 126.715 12.685 126.551 13.525H122.176C122.293 12.265 122.713 11.1683 123.436 10.235C124.183 9.30167 125.14 8.59 126.306 8.1C127.473 7.58667 128.78 7.33 130.226 7.33C132.7 7.33 134.648 7.94833 136.071 9.185C137.495 10.4217 138.206 12.1717 138.206 14.435V25.11H134.391L133.971 22.31C133.458 23.2433 132.735 24.0133 131.801 24.62C130.891 25.2267 129.713 25.53 128.266 25.53ZM129.281 22.03C130.565 22.03 131.556 21.61 132.256 20.77C132.98 19.93 133.435 18.8917 133.621 17.655H129.806C128.616 17.655 127.765 17.8767 127.251 18.32C126.738 18.74 126.481 19.265 126.481 19.895C126.481 20.5717 126.738 21.0967 127.251 21.47C127.765 21.8433 128.441 22.03 129.281 22.03ZM143.37 32.81L147.395 23.955H146.345L139.59 7.75H144.455L149.32 19.965L154.395 7.75H159.155L148.13 32.81H143.37Z" fill="white"/>
</g>
<defs>
<clipPath id="clip0_2_6">
<rect width="160" height="32.62" fill="white" transform="translate(0 0.189999)"/>
</clipPath>
</defs>
</svg>
